<svg width="144" height="24" viewBox="0 0 144 24" fill="none" xmlns="http://www.w3.org/2000/svg">
<g clip-path="url(#clip0_53101_24447)">
<g clip-path="url(#clip1_53101_24447)">
<path d="M21.4286 0H2.57143C1.88944 0 1.23539 0.270919 0.753154 0.753158C0.270918 1.2354 0 1.88945 0 2.57144V6.85718H24V2.57144C24 1.88945 23.7291 1.2354 23.2468 0.753158C22.7646 0.270919 22.1106 0 21.4286 0ZM4.28571 4.28574H3.42857C3.20124 4.28574 2.98323 4.19543 2.82248 4.03468C2.66173 3.87394 2.57143 3.65592 2.57143 3.42859C2.57143 3.20126 2.66173 2.98324 2.82248 2.82249C2.98323 2.66175 3.20124 2.57144 3.42857 2.57144H4.28571C4.51304 2.57144 4.73106 2.66175 4.89181 2.82249C5.05255 2.98324 5.14286 3.20126 5.14286 3.42859C5.14286 3.65592 5.05255 3.87394 4.89181 4.03468C4.73106 4.19543 4.51304 4.28574 4.28571 4.28574ZM8.57143 4.28574H7.71429C7.48696 4.28574 7.26894 4.19543 7.10819 4.03468C6.94745 3.87394 6.85714 3.65592 6.85714 3.42859C6.85714 3.20126 6.94745 2.98324 7.10819 2.82249C7.26894 2.66175 7.48696 2.57144 7.71429 2.57144H8.57143C8.79876 2.57144 9.01677 2.66175 9.17752 2.82249C9.33827 2.98324 9.42857 3.20126 9.42857 3.42859C9.42857 3.65592 9.33827 3.87394 9.17752 4.03468C9.01677 4.19543 8.79876 4.28574 8.57143 4.28574Z" fill="#3C5BA9"/>
<path d="M0 21.4285C0 22.1105 0.270918 22.7645 0.753154 23.2468C1.23539 23.729 1.88944 23.9999 2.57143 23.9999H21.4286C22.1106 23.9999 22.7646 23.729 23.2468 23.2468C23.7291 22.7645 24 22.1105 24 21.4285V8.57129H0V21.4285ZM12.8571 17.9999H16.2857C16.513 17.9999 16.7311 18.0902 16.8918 18.251C17.0526 18.4117 17.1429 18.6297 17.1429 18.8571C17.1429 19.0844 17.0526 19.3024 16.8918 19.4631C16.7311 19.6239 16.513 19.7142 16.2857 19.7142H12.8571C12.6298 19.7142 12.4118 19.6239 12.2511 19.4631C12.0903 19.3024 12 19.0844 12 18.8571C12 18.6297 12.0903 18.4117 12.2511 18.251C12.4118 18.0902 12.6298 17.9999 12.8571 17.9999ZM7.10829 14.3202C6.95215 14.1585 6.86576 13.942 6.86771 13.7173C6.86966 13.4925 6.95981 13.2775 7.11873 13.1186C7.27765 12.9597 7.49263 12.8695 7.71737 12.8676C7.94211 12.8656 8.15863 12.952 8.32029 13.1082L10.8917 15.6796C11.0524 15.8403 11.1427 16.0583 11.1427 16.2856C11.1427 16.5129 11.0524 16.7309 10.8917 16.8916L8.32029 19.4631C8.15863 19.6192 7.94211 19.7056 7.71737 19.7036C7.49263 19.7017 7.27765 19.6115 7.11873 19.4526C6.95981 19.2937 6.86966 19.0787 6.86771 18.854C6.86576 18.6292 6.95215 18.4127 7.10829 18.2511L9.07371 16.2856L7.10829 14.3202Z" fill="#3C5BA9"/>
</g>
<path d="M43.448 11.152V13.888H40.496V11.488C40.496 10.864 40.304 10.408 39.92 10.12C39.552 9.816 39.08 9.664 38.504 9.664C38.088 9.664 37.704 9.728 37.352 9.856C37.016 9.968 36.728 10.104 36.488 10.264V13.888H33.536V10.072C33.536 9.688 33.616 9.376 33.776 9.136C33.936 8.88 34.176 8.648 34.496 8.44C34.992 8.104 35.6 7.832 36.32 7.624C37.056 7.416 37.816 7.312 38.6 7.312C39.384 7.312 40.104 7.432 40.76 7.672C41.416 7.912 41.952 8.264 42.368 8.728C42.48 8.824 42.584 8.92 42.68 9.016C42.776 9.112 42.856 9.224 42.92 9.352C43.064 9.592 43.184 9.872 43.28 10.192C43.392 10.496 43.448 10.816 43.448 11.152ZM50.384 11.392V13.888H47.432V11.488C47.432 10.864 47.256 10.408 46.904 10.12C46.552 9.816 46.08 9.664 45.488 9.664C45.056 9.664 44.632 9.752 44.216 9.928C43.816 10.104 43.472 10.336 43.184 10.624L41.696 8.824C42.192 8.408 42.776 8.056 43.448 7.768C44.12 7.464 44.92 7.312 45.848 7.312C46.696 7.312 47.464 7.448 48.152 7.72C48.84 7.992 49.384 8.432 49.784 9.04C50.184 9.648 50.384 10.432 50.384 11.392ZM33.536 12.736H36.488V18.952C36.36 19 36.176 19.04 35.936 19.072C35.696 19.12 35.432 19.144 35.144 19.144C34.6 19.144 34.192 19.048 33.92 18.856C33.664 18.648 33.536 18.288 33.536 17.776V12.736ZM40.496 12.736H43.448V18.952C43.32 19 43.128 19.04 42.872 19.072C42.632 19.12 42.376 19.144 42.104 19.144C41.544 19.144 41.136 19.048 40.88 18.856C40.624 18.648 40.496 18.288 40.496 17.776V12.736ZM47.432 12.736H50.384V18.952C50.272 19 50.088 19.04 49.832 19.072C49.592 19.12 49.336 19.144 49.064 19.144C48.504 19.144 48.088 19.048 47.816 18.856C47.56 18.648 47.432 18.288 47.432 17.776V12.736ZM56.3844 6.904L56.3124 4.432H63.0564C63.1364 4.544 63.2084 4.712 63.2724 4.936C63.3364 5.144 63.3684 5.368 63.3684 5.608C63.3684 6.024 63.2724 6.344 63.0804 6.568C62.8884 6.792 62.6244 6.904 62.2884 6.904H56.3844ZM58.5204 4.432L58.5684 6.904H51.8244C51.7444 6.776 51.6724 6.608 51.6084 6.4C51.5444 6.192 51.5124 5.96 51.5124 5.704C51.5124 5.272 51.6084 4.952 51.8004 4.744C51.9924 4.536 52.2564 4.432 52.5924 4.432H58.5204ZM55.9044 6.256H58.9284V18.952C58.8004 19 58.6004 19.04 58.3284 19.072C58.0724 19.12 57.8084 19.144 57.5364 19.144C56.9444 19.144 56.5204 19.04 56.2644 18.832C56.0244 18.608 55.9044 18.24 55.9044 17.728V6.256ZM65.2304 14.824L65.1104 12.76L71.5424 11.8C71.4944 11.192 71.2624 10.664 70.8464 10.216C70.4304 9.768 69.8224 9.544 69.0224 9.544C68.2064 9.544 67.5264 9.832 66.9824 10.408C66.4384 10.968 66.1584 11.776 66.1424 12.832L66.2144 14.08C66.3584 15.104 66.7504 15.856 67.3904 16.336C68.0464 16.816 68.8704 17.056 69.8624 17.056C70.5344 17.056 71.1584 16.96 71.7344 16.768C72.3104 16.56 72.7664 16.336 73.1024 16.096C73.3264 16.24 73.5024 16.424 73.6304 16.648C73.7744 16.856 73.8464 17.088 73.8464 17.344C73.8464 17.76 73.6624 18.12 73.2944 18.424C72.9264 18.712 72.4304 18.936 71.8064 19.096C71.1824 19.256 70.4704 19.336 69.6704 19.336C68.4384 19.336 67.3424 19.112 66.3824 18.664C65.4384 18.2 64.6944 17.512 64.1504 16.6C63.6224 15.688 63.3584 14.552 63.3584 13.192C63.3584 12.216 63.5104 11.36 63.8144 10.624C64.1184 9.888 64.5264 9.28 65.0384 8.8C65.5664 8.304 66.1744 7.936 66.8624 7.696C67.5504 7.44 68.2704 7.312 69.0224 7.312C70.0784 7.312 70.9984 7.528 71.7824 7.96C72.5824 8.376 73.2064 8.96 73.6544 9.712C74.1184 10.464 74.3504 11.328 74.3504 12.304C74.3504 12.752 74.2304 13.088 73.9904 13.312C73.7664 13.52 73.4464 13.648 73.0304 13.696L65.2304 14.824ZM79.6833 10.36V13.648H76.7313V10.12C76.7313 9.72 76.8273 9.384 77.0193 9.112C77.2113 8.824 77.4833 8.56 77.8353 8.32C78.3153 8.032 78.9233 7.792 79.6593 7.6C80.3953 7.408 81.1873 7.312 82.0353 7.312C83.5393 7.312 84.2913 7.776 84.2913 8.704C84.2913 8.928 84.2593 9.136 84.1953 9.328C84.1313 9.504 84.0513 9.664 83.9553 9.808C83.7953 9.776 83.5953 9.752 83.3553 9.736C83.1153 9.704 82.8593 9.688 82.5873 9.688C82.0113 9.688 81.4673 9.752 80.9553 9.88C80.4593 9.992 80.0353 10.152 79.6833 10.36ZM76.7313 12.664L79.6833 12.808V18.952C79.5553 19 79.3713 19.04 79.1313 19.072C78.8913 19.12 78.6273 19.144 78.3393 19.144C77.7953 19.144 77.3873 19.048 77.1153 18.856C76.8593 18.648 76.7313 18.288 76.7313 17.776V12.664ZM95.9949 11.152V13.888H93.0429V11.488C93.0429 10.864 92.8509 10.408 92.4669 10.12C92.0989 9.816 91.6269 9.664 91.0509 9.664C90.6349 9.664 90.2509 9.728 89.8989 9.856C89.5629 9.968 89.2749 10.104 89.0349 10.264V13.888H86.0829V10.072C86.0829 9.688 86.1629 9.376 86.3229 9.136C86.4829 8.88 86.7229 8.648 87.0429 8.44C87.5389 8.104 88.1469 7.832 88.8669 7.624C89.6029 7.416 90.3629 7.312 91.1469 7.312C91.9309 7.312 92.6509 7.432 93.3069 7.672C93.9629 7.912 94.4989 8.264 94.9149 8.728C95.0269 8.824 95.1309 8.92 95.2269 9.016C95.3229 9.112 95.4029 9.224 95.4669 9.352C95.6109 9.592 95.7309 9.872 95.8269 10.192C95.9389 10.496 95.9949 10.816 95.9949 11.152ZM102.931 11.392V13.888H99.9789V11.488C99.9789 10.864 99.8029 10.408 99.4509 10.12C99.0989 9.816 98.6269 9.664 98.0349 9.664C97.6029 9.664 97.1789 9.752 96.7629 9.928C96.3629 10.104 96.0189 10.336 95.7309 10.624L94.2429 8.824C94.7389 8.408 95.3229 8.056 95.9949 7.768C96.6669 7.464 97.4669 7.312 98.3949 7.312C99.2429 7.312 100.011 7.448 100.699 7.72C101.387 7.992 101.931 8.432 102.331 9.04C102.731 9.648 102.931 10.432 102.931 11.392ZM86.0829 12.736H89.0349V18.952C88.9069 19 88.7229 19.04 88.4829 19.072C88.2429 19.12 87.9789 19.144 87.6909 19.144C87.1469 19.144 86.7389 19.048 86.4669 18.856C86.2109 18.648 86.0829 18.288 86.0829 17.776V12.736ZM93.0429 12.736H95.9949V18.952C95.8669 19 95.6749 19.04 95.4189 19.072C95.1789 19.12 94.9229 19.144 94.6509 19.144C94.0909 19.144 93.6829 19.048 93.4269 18.856C93.1709 18.648 93.0429 18.288 93.0429 17.776V12.736ZM99.9789 12.736H102.931V18.952C102.819 19 102.635 19.04 102.379 19.072C102.139 19.12 101.883 19.144 101.611 19.144C101.051 19.144 100.635 19.048 100.363 18.856C100.107 18.648 99.9789 18.288 99.9789 17.776V12.736ZM105.884 4.264C105.884 3.8 106.044 3.408 106.364 3.088C106.7 2.768 107.116 2.608 107.612 2.608C108.124 2.608 108.532 2.768 108.836 3.088C109.156 3.408 109.316 3.8 109.316 4.264C109.316 4.712 109.156 5.104 108.836 5.44C108.532 5.76 108.124 5.92 107.612 5.92C107.116 5.92 106.7 5.76 106.364 5.44C106.044 5.104 105.884 4.712 105.884 4.264ZM106.124 12.664H109.1V18.952C108.972 19 108.788 19.04 108.548 19.072C108.308 19.12 108.044 19.144 107.756 19.144C107.212 19.144 106.804 19.048 106.532 18.856C106.26 18.648 106.124 18.288 106.124 17.776V12.664ZM109.1 14.176H106.124V7.744C106.252 7.696 106.436 7.656 106.676 7.624C106.932 7.576 107.204 7.552 107.492 7.552C108.052 7.552 108.46 7.656 108.716 7.864C108.972 8.056 109.1 8.416 109.1 8.944V14.176ZM122.774 11.584V13.912H119.822V11.704C119.822 11 119.622 10.488 119.222 10.168C118.822 9.832 118.286 9.664 117.614 9.664C117.118 9.664 116.67 9.728 116.27 9.856C115.886 9.968 115.542 10.104 115.238 10.264V13.912H112.286V10.072C112.286 9.688 112.366 9.376 112.526 9.136C112.686 8.88 112.926 8.648 113.246 8.44C113.726 8.12 114.342 7.856 115.094 7.648C115.862 7.424 116.71 7.312 117.638 7.312C119.254 7.312 120.51 7.672 121.406 8.392C122.318 9.112 122.774 10.176 122.774 11.584ZM112.286 12.736H115.238V18.952C115.11 19 114.926 19.04 114.686 19.072C114.446 19.12 114.182 19.144 113.894 19.144C113.35 19.144 112.942 19.048 112.67 18.856C112.414 18.648 112.286 18.288 112.286 17.776V12.736ZM119.822 12.736H122.774V18.952C122.662 19 122.478 19.04 122.222 19.072C121.982 19.12 121.726 19.144 121.454 19.144C120.894 19.144 120.478 19.048 120.206 18.856C119.95 18.648 119.822 18.288 119.822 17.776V12.736ZM130.344 17.104C130.824 17.104 131.256 17.056 131.64 16.96C132.024 16.864 132.304 16.76 132.48 16.648V13.912L130.104 14.152C129.448 14.2 128.944 14.344 128.592 14.584C128.256 14.808 128.088 15.144 128.088 15.592C128.088 16.056 128.272 16.424 128.64 16.696C129.008 16.968 129.576 17.104 130.344 17.104ZM130.224 7.312C131.792 7.312 133.04 7.648 133.968 8.32C134.896 8.976 135.36 10.016 135.36 11.44V16.96C135.36 17.344 135.264 17.648 135.072 17.872C134.896 18.096 134.664 18.296 134.376 18.472C133.928 18.728 133.36 18.936 132.672 19.096C131.984 19.272 131.208 19.36 130.344 19.36C128.744 19.36 127.488 19.056 126.576 18.448C125.664 17.824 125.208 16.904 125.208 15.688C125.208 14.616 125.544 13.8 126.216 13.24C126.904 12.664 127.896 12.312 129.192 12.184L132.456 11.848V11.416C132.456 10.776 132.232 10.312 131.784 10.024C131.352 9.736 130.736 9.592 129.936 9.592C129.312 9.592 128.704 9.672 128.112 9.832C127.52 9.992 126.992 10.184 126.528 10.408C126.368 10.28 126.224 10.104 126.096 9.88C125.968 9.656 125.904 9.424 125.904 9.184C125.904 8.608 126.224 8.184 126.864 7.912C127.312 7.704 127.832 7.552 128.424 7.456C129.032 7.36 129.632 7.312 130.224 7.312ZM138.563 12.664L141.515 12.808V18.952C141.387 19 141.203 19.04 140.963 19.072C140.723 19.12 140.459 19.144 140.171 19.144C139.627 19.144 139.219 19.048 138.947 18.856C138.691 18.648 138.563 18.288 138.563 17.776V12.664ZM141.515 14.32L138.563 14.176V3.4C138.675 3.368 138.851 3.328 139.091 3.28C139.347 3.232 139.611 3.208 139.883 3.208C140.459 3.208 140.875 3.312 141.131 3.52C141.387 3.712 141.515 4.064 141.515 4.576V14.32Z" fill="#524344"/>
</g>
<defs>
<clipPath id="clip0_53101_24447">
<rect width="144" height="24" fill="white"/>
</clipPath>
<clipPath id="clip1_53101_24447">
<rect width="24" height="24" fill="white"/>
</clipPath>
</defs>
</svg>
